<svg width="819" height="314" viewBox="0 0 819 314" fill="none" xmlns="http://www.w3.org/2000/svg">
<path d="M250.304 136.188C241.304 136.188 233.704 141.888 230.704 149.788H182.304C179.004 141.388 172.004 134.788 163.204 132.288V90.1884C170.704 87.0884 176.004 79.5884 176.004 70.9884C176.004 62.3884 166.704 50.0884 155.104 50.0884C143.504 50.0884 134.204 59.4884 134.204 70.9884C134.204 82.4884 139.504 87.0884 147.004 90.1884V132.288C142.104 133.688 137.704 136.388 134.204 139.988L91.6042 118.588V118.188C91.6042 106.688 82.3042 97.2884 70.7042 97.2884C59.1042 97.2884 49.8042 106.688 49.8042 118.188C49.8042 129.688 59.1042 139.088 70.7042 139.088C82.3042 139.088 81.2042 136.988 85.0042 133.388L126.604 154.288C126.204 156.188 126.004 158.288 126.004 160.288C126.004 164.488 126.904 168.488 128.504 172.088L89.7042 210.888C87.3042 209.888 84.6042 209.388 81.8042 209.388C70.3042 209.388 60.9042 218.688 60.9042 230.288C60.9042 241.888 70.2042 251.188 81.8042 251.188C93.4042 251.188 102.704 241.888 102.704 230.288C102.704 218.688 102.104 224.788 101.104 222.388L138.904 184.588C143.504 187.688 149.104 189.488 155.104 189.488C161.104 189.488 159.804 189.188 162.004 188.688L190.004 229.688C187.404 233.188 185.904 237.488 185.904 242.088C185.904 253.588 195.304 262.988 206.804 262.988C218.304 262.988 227.704 253.688 227.704 242.088C227.704 230.488 218.404 221.188 206.804 221.188C195.204 221.188 204.904 221.188 203.904 221.388L176.004 180.588C179.904 176.688 182.604 171.588 183.704 165.988H231.304C234.604 173.088 241.804 177.988 250.204 177.988C258.604 177.988 271.104 168.588 271.104 157.088C271.104 145.588 261.804 136.188 250.204 136.188H250.304ZM155.104 182.388C142.904 182.388 133.004 172.488 133.004 160.288C133.004 148.088 142.904 138.188 155.104 138.188C167.304 138.188 177.204 148.088 177.204 160.288C177.204 172.488 167.304 182.388 155.104 182.388Z" fill="#4A90E2"/>
<path d="M295.904 86.3885C353.004 193.588 269.904 320.588 149.004 313.388C38.3043 306.988 -33.1957 187.288 15.6043 87.0885C42.1043 32.4885 100.204 -2.91151 160.904 0.188487C184.804 1.18849 208.804 8.08849 229.104 20.2885L228.304 21.7885C204.204 11.6885 178.504 7.68848 152.804 10.0885C118.304 13.2885 84.9043 28.7885 60.6043 53.5885C11.8043 101.988 3.0043 182.788 42.5043 239.588C86.9043 306.188 183.204 322.588 247.704 275.088C306.704 234.088 327.004 151.288 294.304 87.1885L295.804 86.3885H295.904Z" fill="#4A90E2"/>
<path d="M253.004 39.6885H221.804C212.802 39.6885 205.504 46.9862 205.504 55.9885V87.1885C205.504 96.1907 212.802 103.488 221.804 103.488H253.004C262.006 103.488 269.304 96.1907 269.304 87.1885V55.9885C269.304 46.9862 262.006 39.6885 253.004 39.6885Z" fill="#7ED6A7"/>
<path d="M281.104 1.38843H263.704C258.679 1.38843 254.604 5.46264 254.604 10.4884V27.8884C254.604 32.9142 258.679 36.9884 263.704 36.9884H281.104C286.13 36.9884 290.204 32.9142 290.204 27.8884V10.4884C290.204 5.46264 286.13 1.38843 281.104 1.38843Z" fill="#7ED6A7"/>
<path d="M314.604 36.9883H301.804C297.994 36.9883 294.904 40.0775 294.904 43.8883V56.6883C294.904 60.4991 297.994 63.5883 301.804 63.5883H314.604C318.415 63.5883 321.504 60.4991 321.504 56.6883V43.8883C321.504 40.0775 318.415 36.9883 314.604 36.9883Z" fill="#7ED6A7"/>
<path d="M377.505 242.388H341.305V127.088H375.905C380.605 127.088 384.605 128.788 387.805 132.188C390.905 135.488 392.405 139.288 392.405 143.588V166.488C392.405 170.488 391.205 173.888 388.905 176.888C386.505 179.888 383.505 181.588 379.905 182.188V182.988C383.605 183.188 386.905 184.888 389.805 187.888C392.705 190.988 394.105 194.688 394.105 199.088V225.888C394.105 230.588 392.405 234.588 389.005 237.788C385.705 240.888 381.905 242.388 377.605 242.388H377.505ZM375.805 171.588V146.088C375.805 144.988 375.405 143.988 374.605 143.188C373.805 142.388 372.805 141.988 371.705 141.988H357.705V175.788H371.705C372.805 175.788 373.805 175.388 374.605 174.588C375.405 173.788 375.805 172.788 375.805 171.688V171.588ZM377.505 223.488V198.788C377.505 196.688 376.705 194.788 375.005 193.088C373.405 191.388 371.405 190.488 369.205 190.488H357.705V227.488H373.305C374.405 227.488 375.405 227.088 376.205 226.288C377.005 225.488 377.405 224.488 377.405 223.388L377.505 223.488Z" fill="#4A90E2"/>
<path d="M418.504 275.388H409.104V259.888H417.704C419.304 259.888 420.804 259.188 422.104 257.788C423.404 256.388 424.304 254.788 424.704 252.888L426.504 245.288L402.604 159.988H421.404L431.904 207.288L434.504 223.388H435.504L438.004 207.288L448.204 159.988H465.805L440.604 255.188C439.304 260.088 436.704 264.488 432.904 268.388C428.504 272.988 423.704 275.288 418.404 275.288L418.504 275.388Z" fill="#4A90E2"/>
<path d="M507.505 242.388H494.305C489.805 242.388 486.005 240.788 482.805 237.588C479.405 234.388 477.705 230.488 477.705 225.888V174.888H468.805V160.088H477.905V143.588H494.505V160.088H507.505V174.888H494.305V223.488C494.305 224.588 494.705 225.588 495.505 226.388C496.305 227.188 497.305 227.588 498.405 227.588H507.505V242.388Z" fill="#4A90E2"/>
<path d="M550.505 242.388H534.205C529.605 242.388 525.705 240.788 522.705 237.488C519.405 234.388 517.805 230.588 517.805 225.988V176.588C517.805 171.888 519.405 167.988 522.705 164.888C525.905 161.688 529.705 160.088 534.205 160.088H550.705C555.205 160.088 559.005 161.688 562.205 164.888C565.505 167.988 567.105 171.888 567.105 176.588V207.888H534.205V223.488C534.205 224.588 534.605 225.488 535.405 226.288C536.205 227.088 537.205 227.488 538.305 227.588H546.505C547.605 227.488 548.505 227.088 549.305 226.288C550.105 225.488 550.505 224.588 550.605 223.488V217.688H567.105V225.888C567.105 230.488 565.505 234.388 562.205 237.388C559.105 240.688 555.205 242.288 550.505 242.288V242.388ZM550.705 194.688V179.088C550.705 177.988 550.305 176.988 549.505 176.188C548.705 175.388 547.705 174.988 546.605 174.988H538.405C537.305 174.988 536.305 175.388 535.505 176.188C534.705 176.988 534.305 177.988 534.305 179.088V194.688H550.805H550.705Z" fill="#4A90E2"/>
<path d="M622.405 242.388H586.205V127.088H620.805C625.505 127.088 629.505 128.788 632.705 132.188C635.805 135.488 637.305 139.288 637.305 143.588V166.488C637.305 170.488 636.105 173.888 633.805 176.888C631.405 179.888 628.405 181.588 624.805 182.188V182.988C628.505 183.188 631.805 184.888 634.705 187.888C637.605 190.988 639.005 194.688 639.005 199.088V225.888C639.005 230.588 637.305 234.588 633.905 237.788C630.605 240.888 626.805 242.388 622.505 242.388H622.405ZM620.805 171.588V146.088C620.805 144.988 620.405 143.988 619.605 143.188C618.805 142.388 617.805 141.988 616.705 141.988H602.705V175.788H616.705C617.805 175.788 618.805 175.388 619.605 174.588C620.405 173.788 620.805 172.788 620.805 171.688V171.588ZM622.405 223.488V198.788C622.405 196.688 621.605 194.788 619.905 193.088C618.305 191.388 616.305 190.488 614.105 190.488H602.605V227.488H618.205C619.305 227.488 620.305 227.088 621.105 226.288C621.905 225.488 622.305 224.488 622.305 223.388L622.405 223.488Z" fill="#7ED6A7"/>
<path d="M705.305 242.388H690.605V235.588C690.305 236.288 689.505 237.188 688.305 238.388C685.705 240.988 683.305 242.388 681.105 242.388H672.405C667.805 242.388 663.905 240.788 660.905 237.488C657.605 234.388 656.005 230.588 656.005 225.988V160.088H672.505V223.488C672.505 224.588 672.905 225.588 673.705 226.388C674.505 227.188 675.505 227.588 676.605 227.588H684.805C685.905 227.488 686.905 226.988 687.705 226.188C688.505 225.388 688.905 224.488 688.905 223.488V160.088H705.405V242.388H705.305Z" fill="#7ED6A7"/>
<path d="M739.205 242.388H722.705V160.088H737.505V171.288C739.305 168.288 741.105 165.888 742.905 163.888C745.605 161.388 748.305 160.088 751.005 160.088H758.205V176.388H747.305C745.105 176.488 743.205 177.388 741.505 178.988C739.805 180.588 739.005 182.588 739.105 184.788V242.388H739.205Z" fill="#7ED6A7"/>
<path d="M818.205 242.388H801.705V178.988C801.605 177.888 801.105 176.888 800.305 176.088C799.505 175.288 798.605 174.888 797.605 174.888H789.405C788.305 174.888 787.305 175.288 786.505 176.088C785.705 176.888 785.305 177.888 785.305 178.988V242.388H768.805V160.088H783.605V166.688C783.905 165.888 784.605 165.088 785.605 164.088C788.205 161.488 790.805 160.088 793.305 160.088H801.505C806.205 160.088 810.105 161.688 813.205 164.988C816.505 168.088 818.105 171.888 818.105 176.488V242.388H818.205Z" fill="#7ED6A7"/>
</svg>
